<?xml version="1.0" encoding="UTF-8"?>
<!DOCTYPE svg PUBLIC "-//W3C//DTD SVG 1.1//EN" "http://www.w3.org/Graphics/SVG/1.1/DTD/svg11.dtd">
<!-- Creator: CorelDRAW (Evaluation Version) -->
<svg xmlns="http://www.w3.org/2000/svg" xml:space="preserve" width="10in" height="9.50151in" version="1.1" style="shape-rendering:geometricPrecision; text-rendering:geometricPrecision; image-rendering:optimizeQuality; fill-rule:evenodd; clip-rule:evenodd"
viewBox="0 0 2808.16 2668.17"
 xmlns:xlink="http://www.w3.org/1999/xlink"
 xmlns:xodm="http://www.corel.com/coreldraw/odm/2003">
 <defs>
  <style type="text/css">
   <![CDATA[
    .fil0 {fill:url(#id0);fill-rule:nonzero}
   ]]>
  </style>
  <linearGradient id="id0" gradientUnits="userSpaceOnUse" x1="734.98" y1="2266.27" x2="2161.03" y2="398.77">
   <stop offset="0" style="stop-opacity:1; stop-color:#E65027"/>
   <stop offset="1" style="stop-opacity:1; stop-color:#ED9111"/>
  </linearGradient>
 </defs>
 <g id="Layer_x0020_1">
  <metadata id="CorelCorpID_0Corel-Layer"/>
  <path class="fil0" d="M1800.27 178.68c-9.67,0.04 -17.55,-7.77 -17.59,-17.45 -0.04,-9.67 7.77,-17.55 17.45,-17.59l147.88 -1.09c230.07,229.87 460,459.89 689.97,689.86l-1.08 148.19c-0.04,9.67 -7.91,17.48 -17.59,17.45 -9.67,-0.04 -17.48,-7.91 -17.45,-17.59l0.97 -133.45 -669.42 -669.32 -133.15 0.99zm-1501.02 808.69c-0.04,9.67 -7.91,17.48 -17.59,17.45 -9.67,-0.04 -17.48,-7.91 -17.45,-17.59l0.95 -130.24 5.08 -12.36 689.71 -689.75 12.36 -5.08 123.42 -0.92c9.67,-0.04 17.55,7.77 17.59,17.45 0.04,9.67 -7.77,17.55 -17.45,17.59l-116.09 0.86 -679.65 679.69 -0.9 122.91zm841.87 1498.66c9.67,-0.04 17.55,7.77 17.59,17.45 0.04,9.67 -7.77,17.55 -17.45,17.59l-193.25 1.43c-230.07,-229.87 -459.9,-459.99 -689.97,-689.86l1.13 -154.99c0.04,-9.67 7.91,-17.48 17.59,-17.45 9.67,0.04 17.48,7.91 17.45,17.59l-1.03 140.24 669.42 669.32 178.52 -1.32zm1455.62 -804.6c0.04,-9.67 7.91,-17.48 17.59,-17.45 9.67,0.04 17.48,7.91 17.45,17.59l-0.92 126.49 -5.08 12.36 -689.71 689.75 -12.36 5.08 -167.43 1.24c-9.67,0.04 -17.55,-7.77 -17.59,-17.45 -0.04,-9.67 7.77,-17.55 17.45,-17.59l160.1 -1.19 679.65 -679.69 0.87 -119.15zm-2589.19 -361.99l67.27 -116.51 0 -0.11 74.89 -129.7 299.37 0 74.89 129.7 0 0.1 74.82 129.59 -74.82 129.59 0 0.1 -74.89 129.7 -299.37 0 -74.88 -129.7 0 -0.1 -74.82 -129.59 7.55 -13.09zm2541.2 -248.33c71.62,0 136.48,29.04 183.43,75.98 46.95,46.94 75.98,111.79 75.98,183.43 0,71.63 -29.03,136.48 -75.98,183.43 -46.94,46.95 -111.8,75.98 -183.43,75.98 -71.62,0 -136.49,-29.04 -183.43,-75.98 -46.94,-46.94 -75.98,-111.8 -75.98,-183.43 0,-71.63 29.04,-136.48 75.98,-183.43 46.94,-46.95 111.81,-75.98 183.43,-75.98zm-1307.88 -1071.11l437.73 0 0 461.18 -461.18 0 0 -461.18 23.45 0zm229.38 2218.71l259.5 449.46 -559.48 0 279.74 -484.52 20.24 35.06zm185.77 -914.09l-128.24 222.12 128.24 -74.04 0 -148.08zm-208.02 243.58l197.44 -341.98 -197.44 -113.99 -197.44 113.99 197.44 341.98zm-79.78 -21.46l-128.24 -222.12 0 148.08 128.24 74.04zm-186.86 -314.48l-113.98 -65.81 0 372.12 113.98 -65.8 0 -240.51zm-84.93 -116.42l114.19 65.93 208.07 -120.14 0 -131.85 -322.26 186.06zm703.15 473.36l-114.19 -65.93 -208.07 120.13 0 131.85 322.26 -186.06zm-84.93 -116.42l113.98 65.8 0 -372.12 -113.98 65.8 0 240.51zm-295.95 302.48l0 -131.85 -208.07 -120.13 -114.19 65.93 322.26 186.06zm58.62 -713.63l208.07 120.14 114.19 -65.93 -322.26 -186.06 0 131.85zm-14.77 -207.77l424.71 245.2 0 506.91 -439.25 253.6 -439.25 -253.6 0 -506.91 439.25 -253.6 14.54 8.39zm-928.97 962.39c-16,2.4 -30.92,-8.62 -33.32,-24.61 -2.4,-16 8.62,-30.92 24.61,-33.32 142.46,-21.76 184.96,-117.06 225.17,-207.22 37.63,-84.39 73.55,-164.92 174.98,-196.13l51.99 -16 -15.35 52.17c-87.39,297.04 79.03,371.65 241.19,444.32 148.23,66.43 293.33,131.48 283.29,333.8 -1.8,38.4 -60.2,35.66 -58.39,-2.75 8.07,-162.61 -118.95,-219.55 -248.71,-277.7 -173.1,-77.58 -350.43,-157.11 -289.72,-449.7 -39.94,32.71 -62.55,83.38 -85.92,135.8 -46.56,104.4 -95.78,214.75 -269.82,241.34zm1138.2 585.49c-60.29,12.76 -79.67,-78.8 -19.42,-91.58 335.93,-71.24 612.27,-317 722.64,-641.87 19.84,-58.39 108.45,-28.24 88.66,30.04 -121.01,356.31 -423.54,625.22 -791.88,703.41zm790.67 -1398.78c19.98,58.31 -68.62,88.72 -88.66,30.42 -95.3,-277.29 -313.97,-500.44 -589.53,-600.7 -57.92,-21.07 -25.87,-108.94 31.88,-87.92 302.24,110 541.58,354.24 646.31,658.2zm-1382.57 -658.16c57.83,-20.96 89.76,66.86 31.88,87.92 -272.74,99.23 -487.97,317.36 -585.84,590.31 -20.85,58.15 -109.01,26.5 -88.29,-31.51 106.89,-299.34 343.76,-537.61 642.26,-646.73zm-642.27 1368.65c-20.7,-58.01 67.47,-89.65 88.27,-31.5 114.37,319.74 388.2,559.62 721.16,628.95 60.32,12.56 41.24,104.14 -19.05,91.58 -364.54,-75.91 -665.31,-338.95 -790.37,-689.03zm1936.98 -858.66c15.87,-2.84 31.04,7.71 33.89,23.58 2.84,15.87 -7.71,31.04 -23.58,33.89 -141.83,25.37 -181.92,121.79 -219.84,212.99 -35.47,85.31 -69.33,166.72 -170.01,200.53l-51.55 17.32 14 -52.46c79.82,-299.22 -88.44,-369.56 -252.38,-438.08 -149.86,-62.63 -296.56,-123.97 -291.67,-326.59 0.38,-16.12 13.76,-28.89 29.88,-28.51 16.12,0.38 28.89,13.76 28.51,29.88 -3.93,162.64 124.52,216.34 255.72,271.18 175.04,73.16 354.37,148.16 301.1,442.2 39.02,-33.71 60.33,-84.92 82.36,-137.91 43.86,-105.49 90.24,-217.01 263.58,-248.02z"/>
 </g>
</svg>
